<svg width="40" height="40" viewBox="0 0 40 40" fill="none" xmlns="http://www.w3.org/2000/svg">
<circle cx="20" cy="20" r="20" fill="#232323"/>
<path d="M20 12C20.2188 12 20.4375 12.0156 20.6562 12.0469C20.9062 12.0469 21.1406 12.0625 21.3594 12.0938C20.6719 12.5938 20.125 13.2344 19.7188 14.0156C19.3125 14.7656 19.1094 15.5938 19.1094 16.5C19.1094 17.5 19.3438 18.4062 19.8125 19.2188C20.3125 20.0312 20.9688 20.6875 21.7812 21.1875C22.5938 21.6562 23.5 21.8906 24.5 21.8906C25.4062 21.8906 26.2344 21.6875 26.9844 21.2812C27.7656 20.875 28.4062 20.3281 28.9062 19.6406C28.9375 19.8594 28.9531 20.0938 28.9531 20.3438C28.9844 20.5625 29 20.7812 29 21C29 22.25 28.7656 23.4219 28.2969 24.5156C27.8281 25.5781 27.1719 26.5312 26.3281 27.375C25.5156 28.1875 24.5625 28.8281 23.4688 29.2969C22.4062 29.7656 21.25 30 20 30C18.75 30 17.5781 29.7656 16.4844 29.2969C15.4219 28.8281 14.4688 28.1875 13.625 27.375C12.8125 26.5312 12.1719 25.5781 11.7031 24.5156C11.2344 23.4219 11 22.25 11 21C11 19.75 11.2344 18.5938 11.7031 17.5312C12.1719 16.4375 12.8125 15.4844 13.625 14.6719C14.4688 13.8281 15.4219 13.1719 16.4844 12.7031C17.5781 12.2344 18.75 12 20 12Z" fill="#9747FF"/>
</svg>
